<svg width="65" height="65" viewBox="0 0 65 65" fill="none" xmlns="http://www.w3.org/2000/svg">
<rect width="65" height="65" rx="32.5" fill="white"/>
<path fill-rule="evenodd" clip-rule="evenodd" d="M28.2355 19.8317C29.7459 19.3647 30.8607 20.8084 30.4647 22.0175C30.1545 22.9648 29.9865 23.9754 29.9865 25.0268C29.9865 30.5025 34.556 34.9414 40.1927 34.9414C41.275 34.9414 42.3154 34.7782 43.2906 34.4768C44.5353 34.0921 46.0215 35.1751 45.5407 36.6423C43.771 42.0433 38.5663 45.9585 32.4163 45.9585C24.8109 45.9585 18.6455 39.9692 18.6455 32.5811C18.6455 26.6069 22.6758 21.5508 28.2355 19.8317ZM27.1838 23.3404C23.8316 25.1356 21.5622 28.6022 21.5622 32.5811C21.5622 38.4044 26.4218 43.1251 32.4163 43.1251C36.5123 43.1251 40.0808 40.9205 41.9288 37.664C41.3603 37.7371 40.7808 37.7747 40.1927 37.7747C32.9451 37.7747 27.0699 32.0673 27.0699 25.0268C27.0699 24.4556 27.1086 23.8926 27.1838 23.3404Z" fill="#007FDF"/>
</svg>
