<svg width="65" height="65" viewBox="0 0 65 65" fill="none" xmlns="http://www.w3.org/2000/svg">
<rect width="65" height="65" rx="32.5" fill="white"/>
<path fill-rule="evenodd" clip-rule="evenodd" d="M37.6038 21.8748L29.4661 21.8748L28.8255 18.7637L25.9655 19.3193L26.4916 21.8748L18.6455 21.8748V24.7082L21.9234 24.7082C22.1175 25.3034 22.4052 26.1059 22.7974 27.0023C23.4726 28.5455 24.4952 30.456 25.9497 32.0576C24.6345 33.0249 23.1697 33.9034 21.8843 34.6072C20.9966 35.0933 20.2131 35.486 19.6529 35.7565C19.3731 35.8917 19.1497 35.996 18.9978 36.0658C18.9219 36.1008 18.8639 36.127 18.8257 36.1442L18.7834 36.1631L18.7721 36.1682C18.7721 36.1682 18.7723 36.1681 19.3749 37.4582C19.9774 38.7483 19.9796 38.7473 19.9796 38.7473L19.9839 38.7454L19.9986 38.7389L20.0513 38.7153C20.0966 38.6949 20.1621 38.6652 20.2457 38.6267C20.413 38.5498 20.6533 38.4376 20.9514 38.2936C21.5469 38.006 22.3762 37.5903 23.3165 37.0754C24.7723 36.2783 26.5407 35.2185 28.1248 34.0053C29.7088 35.2185 31.4772 36.2783 32.933 37.0754C33.8733 37.5903 34.7026 38.006 35.2982 38.2936C35.3729 38.3297 35.4439 38.3638 35.5111 38.3958L34.9303 39.7452L32.6028 45.4353L35.3134 46.4816L36.6863 43.1251H42.8961L44.2696 46.4817L46.98 45.4351L44.6615 39.7684L41.2287 31.7917H38.3535L36.6384 35.7767C36.6246 35.7701 36.6107 35.7633 36.5966 35.7565C36.0364 35.486 35.2529 35.0933 34.3652 34.6072C33.0798 33.9034 31.615 33.0249 30.2999 32.0576C31.7543 30.456 32.777 28.5455 33.4521 27.0023C33.8443 26.1059 34.132 25.3034 34.3261 24.7082L37.6038 24.7082V21.8748ZM30.7678 25.8941C30.1469 27.3132 29.2714 28.9035 28.1248 30.17C26.9781 28.9035 26.1026 27.3132 25.4817 25.8941C25.2963 25.4703 25.137 25.0697 25.0026 24.7082L31.2469 24.7082C31.1125 25.0697 30.9532 25.4703 30.7678 25.8941ZM41.7255 40.2917H37.8567L39.7911 35.7969L41.7255 40.2917Z" fill="#007FDF"/>
</svg>
